<mxfile host="app.diagrams.net" modified="2023-10-18T01:05:16.309Z" agent="Mozilla/5.0 (Windows NT 10.0; Win64; x64) AppleWebKit/537.36 (KHTML, like Gecko) Chrome/117.0.0.0 Safari/537.36 Edg/117.0.2045.60" version="22.0.4" etag="tiW5FIzyuJfyu4k89Xjv" type="github">
  <diagram name="페이지-1" id="UPAI7C7_VMgfQx9Wrj3K">
    <mxGraphModel>
      <root>
        <mxCell id="0" />
        <mxCell id="1" parent="0" />
      </root>
    </mxGraphModel>
  </diagram>
</mxfile>
